<svg width="32" height="32" viewBox="0 0 32 32" fill="none" xmlns="http://www.w3.org/2000/svg">
<path d="M2.95664 25.8484H19.5191C19.3875 27.8573 17.9731 29.137 15.983 29.137C14.0093 29.137 12.5783 27.8573 12.4632 25.8484H9.89742C10.029 28.7055 12.5126 31.2204 15.983 31.2204C19.4698 31.2204 21.9533 28.7204 22.085 25.8484H29.0258C30.5718 25.8484 31.5093 25.1192 31.5093 24.0477C31.5093 22.5597 29.8317 21.2204 28.4172 19.896C27.3316 18.8692 27.0356 16.7561 26.904 15.0448C26.7889 9.18169 25.1112 5.38703 20.7362 3.95846C20.177 2.02394 18.4172 0.476318 15.983 0.476318C13.5652 0.476318 11.7889 2.02394 11.2461 3.95846C6.87111 5.38703 5.19348 9.18169 5.07835 15.0448C4.94677 16.7561 4.65072 18.8692 3.56519 19.896C2.13427 21.2204 0.473083 22.5597 0.473083 24.0477C0.473083 25.1192 1.39414 25.8484 2.95664 25.8484ZM3.66387 23.6013V23.4228C3.95992 22.9763 4.94677 22.1132 5.80203 21.2353C6.98625 20.0448 7.54545 18.14 7.69348 15.2234C7.82506 8.73521 9.96319 6.65191 12.7757 5.96739C13.1869 5.8781 13.4172 5.68465 13.4336 5.31263C13.4829 3.75013 14.4698 2.66382 15.983 2.66382C17.5126 2.66382 18.4829 3.75013 18.5487 5.31263C18.5652 5.68465 18.779 5.8781 19.1902 5.96739C22.0191 6.65191 24.1573 8.73521 24.2889 15.2234C24.4369 18.14 24.9961 20.0448 26.1639 21.2353C27.0356 22.1132 28.006 22.9763 28.3021 23.4228V23.6013H3.66387Z" fill="#395260"/>
</svg>
