<svg width="14" height="17" viewBox="0 0 14 17" fill="none" xmlns="http://www.w3.org/2000/svg">
<path d="M12.8375 15.989L6.99999 13.2529L1.16325 15.989C1.14577 15.9973 1.1265 16.0009 1.10725 15.9997C1.088 15.9984 1.06938 15.9922 1.05311 15.9817C1.03684 15.9712 1.02344 15.9566 1.01416 15.9395C1.00487 15.9223 1 15.903 1 15.8835V1.33458C1 1.24585 1.03473 1.16075 1.09653 1.098C1.15834 1.03526 1.24216 1 1.32957 1H12.6704C12.7578 1 12.8417 1.03526 12.9035 1.098C12.9653 1.16075 13 1.24585 13 1.33458V15.8835C13.0001 15.903 12.9954 15.9223 12.9862 15.9395C12.977 15.9567 12.9637 15.9712 12.9475 15.9817C12.9312 15.9923 12.9126 15.9985 12.8934 15.9998C12.8742 16.001 12.8549 15.9973 12.8375 15.989Z" stroke="black" stroke-width="2" stroke-miterlimit="10"/>
</svg>
