<svg width="130" height="18" viewBox="0 0 130 18" fill="none" xmlns="http://www.w3.org/2000/svg">
<path d="M12.0416 8.00358V17.0629C12.0416 17.2013 12.0961 17.3341 12.1933 17.4325C12.2906 17.531 12.4227 17.5872 12.561 17.5889H16.19C16.3295 17.5889 16.4633 17.5335 16.5619 17.4348C16.6605 17.3362 16.7159 17.2024 16.7159 17.0629V1.79745C16.716 1.72869 16.7023 1.66061 16.6758 1.59716C16.6493 1.53372 16.6104 1.47617 16.5615 1.42786C16.5126 1.37954 16.4546 1.34142 16.3908 1.31571C16.327 1.29 16.2588 1.27721 16.19 1.27808H12.3769C12.0416 1.27808 11.8247 1.35697 11.5814 1.8106L8.65587 6.28111L5.72374 1.81717C5.48049 1.35697 5.26354 1.27808 4.92825 1.27808H1.13489C0.997144 1.27808 0.86504 1.3328 0.76764 1.4302C0.670239 1.5276 0.61552 1.6597 0.61552 1.79745V17.0629C0.61465 17.1317 0.627441 17.1999 0.653152 17.2637C0.678862 17.3275 0.716981 17.3855 0.765296 17.4345C0.81361 17.4834 0.87116 17.5222 0.934605 17.5487C0.99805 17.5752 1.06613 17.5889 1.13489 17.5889H4.64556C4.71432 17.5889 4.7824 17.5752 4.84584 17.5487C4.90929 17.5222 4.96684 17.4834 5.01515 17.4345C5.06347 17.3855 5.10158 17.3275 5.1273 17.2637C5.15301 17.1999 5.1658 17.1317 5.16493 17.0629V8.00358L7.18981 11.6786C7.26286 11.8679 7.39684 12.0275 7.57063 12.1323C7.74442 12.237 7.94814 12.281 8.14965 12.2571H9.08978C9.29129 12.281 9.49501 12.237 9.6688 12.1323C9.84259 12.0275 9.97657 11.8679 10.0496 11.6786L12.0416 8.00358Z" fill="#050B0E"/>
<path d="M24.7695 13.4142H29.595V17.0366C29.595 17.3982 29.6804 17.5626 30.1867 17.5626H33.7499C34.1575 17.5626 34.2693 17.4508 34.2693 17.0366V10.8436C34.1855 9.58396 33.8807 8.34887 33.3686 7.19491L31.3174 1.83687C31.2678 1.65271 31.1515 1.49355 30.9912 1.39029C30.8308 1.28703 30.6378 1.24703 30.4496 1.27805H24.112C23.5269 1.27805 23.3363 1.50158 23.2179 1.83687L21.1667 7.19491C20.6515 8.34778 20.3465 9.58345 20.2661 10.8436V17.0629C20.2661 17.4771 20.3778 17.5889 20.7854 17.5889H24.283C24.6906 17.5889 24.8023 17.4771 24.8023 17.0629L24.7695 13.4142ZM29.4766 9.77861H24.8746L26.3276 5.11086H27.9646L29.4766 9.77861Z" fill="#050B0E"/>
<path d="M36.5966 1.27816C36.189 1.27816 36.0772 1.38992 36.0772 1.79753V4.65077C36.0772 5.05838 36.189 5.17014 36.5966 5.17014H39.7325V17.063C39.7325 17.4772 39.8443 17.589 40.2519 17.589H44.0716C44.4792 17.589 44.5909 17.4772 44.5909 17.063V5.17014H47.7269C48.1345 5.17014 48.2462 5.05838 48.2462 4.65077V1.79753C48.2462 1.38992 48.1345 1.27816 47.7269 1.27816H36.5966Z" fill="#050B0E"/>
<path d="M55.879 11.5078H60.481V17.063C60.481 17.4772 60.5928 17.589 61.0004 17.589H64.6491C65.0633 17.589 65.1751 17.4772 65.1751 17.063V1.79753C65.1751 1.38992 65.0633 1.27816 64.6491 1.27816H60.9938C60.5862 1.27816 60.4745 1.38992 60.4745 1.79753V7.24104H55.8725V1.79753C55.8725 1.38992 55.7607 1.27816 55.3531 1.27816H51.7109C51.3033 1.27816 51.1916 1.38992 51.1916 1.79753V17.063C51.1916 17.4772 51.3033 17.589 51.7109 17.589H55.3597C55.7673 17.589 55.879 17.4772 55.879 17.063V11.5078Z" fill="#050B0E"/>
<path d="M69.2183 13.743C68.8041 13.743 68.6924 13.8548 68.6924 14.2624V17.063C68.6924 17.4772 68.8041 17.589 69.2183 17.589H79.2507C79.6648 17.589 79.7766 17.4772 79.7766 17.063V14.2624C79.7766 13.8548 79.6648 13.743 79.2507 13.743H76.6209V5.19644H79.2507C79.6648 5.19644 79.7766 5.08467 79.7766 4.67707V1.79753C79.7766 1.38992 79.6648 1.27816 79.2507 1.27816H69.2183C68.8041 1.27816 68.6924 1.38992 68.6924 1.79753V4.65077C68.6924 5.05838 68.8041 5.17014 69.2183 5.17014H71.848V13.7167L69.2183 13.743Z" fill="#050B0E"/>
<path d="M83.4516 13.789C83.044 13.789 82.9322 13.9008 82.9322 14.3084V17.063C82.9322 17.4772 83.044 17.589 83.4516 17.589H90.8937C93.8324 17.589 95.4431 16.2281 95.4431 13.7693V11.2908C95.4431 9.10156 94.4635 8.06283 92.0508 7.70781L88.5467 7.23447C87.6197 7.10298 87.6263 7.01751 87.6263 6.15628C87.6263 5.29505 87.6263 5.12412 88.5861 5.12412H94.0756C94.4832 5.12412 94.595 5.01236 94.595 4.59818V1.79753C94.595 1.38992 94.4832 1.27816 94.0756 1.27816H87.5014C84.5626 1.27816 82.9519 2.63246 82.9519 5.09782V7.56975C82.9519 9.75899 83.9249 10.7977 86.3245 11.1593L89.8549 11.6524C90.6702 11.7707 90.7491 11.8496 90.7491 12.7766C90.7491 13.7036 90.5847 13.789 89.8089 13.789H83.4516Z" fill="#050B0E"/>
<path d="M105.383 0.923096C99.2298 0.923096 98.3817 3.08604 98.3817 5.42648V13.4603C98.3817 15.7876 99.2298 17.9373 105.383 17.9373C111.537 17.9373 112.378 15.7876 112.378 13.4603V5.42648C112.378 3.08604 111.517 0.923096 105.383 0.923096ZM105.383 14.0717C103.766 14.0717 103.076 13.6443 103.076 12.6385V6.27457C103.076 5.28185 103.766 4.86109 105.383 4.86109C107.001 4.86109 107.691 5.28185 107.691 6.27457V12.6122C107.691 13.6312 107.02 14.0717 105.383 14.0717Z" fill="#050B0E"/>
<path d="M120.583 9.8509L125.271 17.0826C125.379 17.2413 125.524 17.3718 125.693 17.4633C125.863 17.5548 126.051 17.6046 126.244 17.6086H129.32C129.735 17.6086 129.846 17.4968 129.846 17.0826V1.7974C129.846 1.38979 129.735 1.27803 129.32 1.27803H125.79C125.382 1.27803 125.271 1.38979 125.271 1.7974V9.3907L120.123 1.7974C119.988 1.61829 119.81 1.47656 119.605 1.38566C119.4 1.29477 119.176 1.25772 118.953 1.27803H116.5C116.093 1.27803 115.981 1.38979 115.981 1.7974V17.0629C115.981 17.4771 116.093 17.5888 116.5 17.5888H120.037C120.445 17.5888 120.557 17.4771 120.557 17.0629L120.583 9.8509Z" fill="#050B0E"/>
</svg>
